<svg data-v-23d2c5be="" version="1.0" xmlns="http://www.w3.org/2000/svg" xmlns:xlink="http://www.w3.org/1999/xlink" width="100%" height="100%" viewBox="0 0 340.000000 250.000000" preserveAspectRatio="xMidYMid meet" color-interpolation-filters="sRGB" class="el-tooltip" style="margin: auto;"><g data-v-23d2c5be="" fill="#FFFFFF" class="j-b-g-c iconbgsvg" mask="url(#e4b95ce8-3ef3-4fa3-a768-bf2f04863edb)" transform="translate(81.25,35.42127990722656)"><g transform="translate(0,0)"><rect fill="#FFFFFF" fill-opacity="0" stroke-width="2" x="0" y="0" width="177.5" height="179.15744003047433" class="image-rect"></rect> <svg filter="url(#colors4664735864)" x="0" y="0" width="177.5" height="179.15744003047433" filtersec="colorsf1277674332" class="image-svg-svg primary"><svg fill="#000000" xmlns="http://www.w3.org/2000/svg" xmlns:xlink="http://www.w3.org/1999/xlink" version="1.1" x="0px" y="0px" viewBox="0.2947338819503784 -0.001500248908996582 63.40990447998047 64.00200653076172" enable-background="new 0 0 64 64" xml:space="preserve"><path d="M59.583,10.308c-8.457-2.251-17.348-4.487-26.916-6.703L32.643,3.6L32.62,3.59  c-0.146-0.059-0.384-0.098-0.619-0.097c-0.237-0.001-0.475,0.038-0.619,0.097L31.358,3.6l-0.024,0.005  c-9.57,2.216-18.46,4.452-26.918,6.703c-0.12,0.07-0.252,0.3-0.248,0.543c0,0.055,0.006,0.109,0.018,0.162  c1.551,6.784,2.322,13.7,2.322,20.618c0,6.253-0.642,12.506-1.915,18.662c-0.015,0.069-0.023,0.151-0.023,0.24  c-0.004,0.264,0.083,0.566,0.181,0.723c8.324,2.768,17.111,5.514,26.732,8.229l0.068,0.02l0.055,0.046  c0.096,0.081,0.243,0.131,0.396,0.131c0.151,0,0.298-0.05,0.394-0.131l0.054-0.046l0.07-0.02c9.62-2.716,18.406-5.462,26.73-8.229  c0.098-0.156,0.186-0.459,0.181-0.722c0-0.088-0.008-0.171-0.023-0.242h0.001c-1.277-6.169-1.915-12.438-1.915-18.706  c0-6.9,0.774-13.802,2.321-20.572c0.013-0.053,0.019-0.108,0.019-0.163C59.836,10.608,59.704,10.378,59.583,10.308z"></path><path d="M63.183,7.693c-9.535-2.539-19.559-5.06-30.348-7.558c-0.458-0.182-1.213-0.182-1.67,0  C20.376,2.634,10.353,5.155,0.818,7.693c-0.387,0.183-0.606,0.737-0.494,1.23C3.637,23.413,3.789,38.441,0.781,52.98  c-0.101,0.493,0.038,1.159,0.317,1.479c9.408,3.13,19.339,6.235,30.218,9.306c0.374,0.314,0.994,0.314,1.369,0  c10.878-3.07,20.809-6.176,30.217-9.306c0.28-0.319,0.419-0.985,0.317-1.479c-3.009-14.539-2.855-29.568,0.456-44.057  C63.788,8.431,63.568,7.876,63.183,7.693z M60.462,11.161c-1.536,6.722-2.305,13.572-2.305,20.424c0,6.223,0.633,12.446,1.9,18.571  l-0.325,0.067l0.325-0.066c0.025,0.123,0.036,0.248,0.036,0.376c-0.005,0.445-0.12,0.898-0.393,1.223l-0.06,0.068l-0.085,0.028  c-8.344,2.775-17.15,5.53-26.795,8.253c-0.226,0.164-0.496,0.239-0.761,0.24c-0.267-0.001-0.536-0.076-0.761-0.24  c-9.645-2.723-18.452-5.477-26.795-8.253l-0.086-0.028l-0.059-0.067c-0.273-0.324-0.388-0.778-0.393-1.225  c0-0.127,0.011-0.253,0.037-0.376c1.264-6.11,1.9-12.318,1.9-18.526c0-6.868-0.765-13.734-2.305-20.469  c-0.024-0.103-0.035-0.208-0.035-0.311c0.005-0.47,0.216-0.937,0.654-1.156l0.028-0.013l0.029-0.008  c8.466-2.253,17.365-4.492,26.945-6.71C31.415,2.868,31.707,2.83,32,2.829c0.292,0,0.583,0.04,0.837,0.133  c9.58,2.219,18.48,4.458,26.947,6.711l0.028,0.008l0.029,0.013c0.438,0.22,0.649,0.686,0.653,1.156  C60.496,10.953,60.485,11.058,60.462,11.161z"></path></svg></svg> <defs><filter id="colors4664735864"><feColorMatrix type="matrix" values="0 0 0 0 0.99609375  0 0 0 0 0.99609375  0 0 0 0 0.99609375  0 0 0 1 0" class="icon-fecolormatrix"></feColorMatrix></filter> <filter id="colorsf1277674332"><feColorMatrix type="matrix" values="0 0 0 0 0.99609375  0 0 0 0 0.99609375  0 0 0 0 0.99609375  0 0 0 1 0" class="icon-fecolormatrix"></feColorMatrix></filter> <filter id="colorsb4494875840"><feColorMatrix type="matrix" values="0 0 0 0 0  0 0 0 0 0  0 0 0 0 0  0 0 0 1 0" class="icon-fecolormatrix"></feColorMatrix></filter></defs></g> <g transform="translate(44.71500015258789,15.397422790527344)"><g class="iconsvg-imagesvg" transform="translate(2.5349998474121094,0)"><!----> <svg filter="url(#colors186856200)" x="0" y="0" width="83" height="88.57196661013587" filtersec="colorsf6616616094" class="image-svg-svg primary"><svg xmlns="http://www.w3.org/2000/svg" viewBox="0 0 1362.09 1453.53"><g><path d="M1332.92 890.89v-.06c-.57-135.66-126-189.08-125.93-189.37l9.89-86.59a10.95 10.95 0 0 0-13.2-11.94 308 308 0 0 0-78.17 28.91l4.16-36.4a11 11 0 0 0-3.43-9.28 10.65 10.65 0 0 0-9.51-2.68c-81 15.85-152.07 62.11-197.48 127.89A528.7 528.7 0 0 0 568.83 513c-111.65-13.7-219.06 7.83-313.12 62.41 59.65-177 205.35-316.14 386.26-366.64a572.23 572.23 0 0 1 108.08-19.14c159.23-12.55 317.31 42.94 435.3 153.46 27 17.32 64.93 11.76 85.8-12.63a66.14 66.14 0 0 0-1.09-86.7C1119.74 74.74 895.3-15.57 669.69 2.21a722.42 722.42 0 0 0-283.92 82.9C88.71 243.08-60.47 581 23 907s376.59 550.67 713 546.52a4.3 4.3 0 0 0 .72 0 10.94 10.94 0 0 0 6.75-18.78c-124.57-120-141.42-188.67-133.63-225.14 5.33-24.8 22.62-37.56 32.3-42.95 188.67 229.49 413.76 224.22 457.32 220.79 7.24-.57 11.13-1.18 11.13-1.18a10.86 10.86 0 0 0 8.36-6.44c1.49-3.42.64-7.13-1-10.51-197.73-405.44 247.17-200.47 244.13-409.67-6.59-18.08-29.73-43.8-29.16-68.75zm-112.6-1.4a31.92 31.92 0 1 1 31.92-31.92 31.93 31.93 0 0 1-31.92 31.92z" fill="#1d1d1b"></path></g></svg></svg> <defs><filter id="colors186856200"><feColorMatrix type="matrix" values="0 0 0 0 0.99609375  0 0 0 0 0.99609375  0 0 0 0 0.99609375  0 0 0 1 0" class="icon-fecolormatrix"></feColorMatrix></filter> <filter id="colorsf6616616094"><feColorMatrix type="matrix" values="0 0 0 0 0.99609375  0 0 0 0 0.99609375  0 0 0 0 0.99609375  0 0 0 1 0" class="icon-fecolormatrix"></feColorMatrix></filter> <filter id="colorsb6181012632"><feColorMatrix type="matrix" values="0 0 0 0 0  0 0 0 0 0  0 0 0 0 0  0 0 0 1 0" class="icon-fecolormatrix"></feColorMatrix></filter></defs></g> <g transform="translate(0,96.57196807861328)"><g fill-rule="" class="tp-name iconsvg-namesvg"><g><path d="M23.03-31.64L23.73-23.91L22.85-23.73Q20.57-31.29 17.05-30.41L17.05-30.41L10.37-30.41Q7.38-30.59 7.56-27.77L7.56-27.77L7.56-17.05L13.71-17.05Q18.28-16.35 18.28-22.32L18.28-22.32L18.98-22.32L18.98-10.37L18.28-10.37Q17.75-16.70 13.71-16.00L13.71-16.00L7.56-16.00L7.56-3.34Q7.21-0.53 11.43-0.70L11.43-0.70L11.43 0L1.05 0L1.05-0.70Q5.10-0.53 4.92-3.34L4.92-3.34L4.92-27.77Q5.27-30.94 0.88-30.76L0.88-30.76L0.88-31.64L23.03-31.64ZM38.50-1.76L38.50-1.76L38.50-2.29Q36.04 0.88 32.17 0.70L32.17 0.70Q26.54 0.70 26.37-4.39L26.37-4.39Q26.72-10.90 38.50-12.48L38.50-12.48L38.50-15.82Q38.50-20.21 34.28-20.39L34.28-20.39Q31.46-20.39 30.41-18.63L30.41-18.63Q29.88-17.93 30.23-17.05L30.23-17.05Q30.41-16.88 30.41-16.00L30.41-16.00Q30.41-14.41 28.83-14.41L28.83-14.41Q27.25-14.59 27.07-16.17L27.07-16.17Q27.60-21.09 34.28-21.45L34.28-21.45Q40.96-21.27 41.13-15.29L41.13-15.29L41.13-2.64Q41.13-1.05 42.19-1.05L42.19-1.05Q43.24-1.05 43.95-1.93L43.95-1.93L44.47-1.41Q42.89 0.88 41.13 0.70L41.13 0.70Q38.50 0.70 38.50-1.76ZM38.50-3.52L38.50-3.52L38.50-11.43Q29.53-10.02 29.18-4.39L29.18-4.39Q29.36-1.05 33.05-1.05L33.05-1.05Q35.86-1.05 38.50-3.52ZM47.99-4.22L47.99-4.22L47.99-19.86L45.35-19.86L45.35-20.57Q49.39-20.57 49.75-28.30L49.75-28.30L50.63-28.30L50.63-21.09L55.20-21.09L55.20-19.86L50.63-19.86L50.63-3.69Q50.63-1.41 52.73-1.23L52.73-1.23Q54.49-1.05 56.25-3.69L56.25-3.69L56.78-2.99Q55.20 0.88 51.86 0.70L51.86 0.70Q47.81 0.88 47.99-4.22ZM60.29-4.22L60.29-4.22L60.29-19.86L57.66-19.86L57.66-20.57Q61.70-20.57 62.05-28.30L62.05-28.30L62.93-28.30L62.93-21.09L67.50-21.09L67.50-19.86L62.93-19.86L62.93-3.69Q62.93-1.41 65.04-1.23L65.04-1.23Q66.80-1.05 68.55-3.69L68.55-3.69L69.08-2.99Q67.50 0.88 64.16 0.70L64.16 0.70Q60.12 0.88 60.29-4.22ZM85.08-17.58L85.08-17.58L78.57 1.76Q76.99 6.15 73.65 6.15L73.65 6.15Q70.66 5.98 70.49 3.69L70.49 3.69Q70.66 2.29 72.25 2.11L72.25 2.11Q73.65 2.11 73.83 3.52L73.83 3.52Q73.83 4.39 74.71 4.39L74.71 4.39Q76.11 4.22 77.34 1.05L77.34 1.05L78.57-2.64L72.95-17.58Q72.07-20.21 69.96-20.04L69.96-20.04L69.96-21.09L77.70-21.09L77.70-20.04Q74.71-20.21 75.59-18.46L75.59-18.46L79.98-6.33L84.02-18.46Q85.08-20.21 81.39-20.04L81.39-20.04L81.39-21.09L88.95-21.09L88.95-20.04Q85.78-20.21 85.08-17.58Z" transform="translate(-0.87890625, 31.640625)"></path></g> <!----> <!----> <!----> <!----> <!----> <!----> <!----></g> <!----></g></g></g><defs><filter id="8836c87a-131c-44d0-9b85-4287f0adefec">
          <feColorMatrix type="matrix" values="0 0 0 0 0  0 0 0 0 0  0 0 0 0 0  0 0 0 1 0"></feColorMatrix>
          </filter><filter id="5473e1c1-a07e-4a96-8221-c977d4001924">
          <feColorMatrix type="matrix" values="0 0 0 0 0.99609375  0 0 0 0 0.99609375  0 0 0 0 0.99609375  0 0 0 1 0"></feColorMatrix>
          </filter></defs><mask id="e4b95ce8-3ef3-4fa3-a768-bf2f04863edb"><g data-v-23d2c5be="" class="j-b-g-c iconbgsvg"><g transform="translate(0,0)"><rect fill-opacity="0" stroke-width="2" x="0" y="0" width="177.5" height="179.15744003047433" class="image-rect"></rect> <svg x="0" y="0" width="177.5" height="179.15744003047433" filtersec="colorsf1277674332" class="image-svg-svg primary" filter="url(#5473e1c1-a07e-4a96-8221-c977d4001924)"><svg xmlns="http://www.w3.org/2000/svg" xmlns:xlink="http://www.w3.org/1999/xlink" version="1.1" x="0px" y="0px" viewBox="0.2947338819503784 -0.001500248908996582 63.40990447998047 64.00200653076172" enable-background="new 0 0 64 64" xml:space="preserve"><path d="M59.583,10.308c-8.457-2.251-17.348-4.487-26.916-6.703L32.643,3.6L32.62,3.59  c-0.146-0.059-0.384-0.098-0.619-0.097c-0.237-0.001-0.475,0.038-0.619,0.097L31.358,3.6l-0.024,0.005  c-9.57,2.216-18.46,4.452-26.918,6.703c-0.12,0.07-0.252,0.3-0.248,0.543c0,0.055,0.006,0.109,0.018,0.162  c1.551,6.784,2.322,13.7,2.322,20.618c0,6.253-0.642,12.506-1.915,18.662c-0.015,0.069-0.023,0.151-0.023,0.24  c-0.004,0.264,0.083,0.566,0.181,0.723c8.324,2.768,17.111,5.514,26.732,8.229l0.068,0.02l0.055,0.046  c0.096,0.081,0.243,0.131,0.396,0.131c0.151,0,0.298-0.05,0.394-0.131l0.054-0.046l0.07-0.02c9.62-2.716,18.406-5.462,26.73-8.229  c0.098-0.156,0.186-0.459,0.181-0.722c0-0.088-0.008-0.171-0.023-0.242h0.001c-1.277-6.169-1.915-12.438-1.915-18.706  c0-6.9,0.774-13.802,2.321-20.572c0.013-0.053,0.019-0.108,0.019-0.163C59.836,10.608,59.704,10.378,59.583,10.308z"></path><path d="M63.183,7.693c-9.535-2.539-19.559-5.06-30.348-7.558c-0.458-0.182-1.213-0.182-1.67,0  C20.376,2.634,10.353,5.155,0.818,7.693c-0.387,0.183-0.606,0.737-0.494,1.23C3.637,23.413,3.789,38.441,0.781,52.98  c-0.101,0.493,0.038,1.159,0.317,1.479c9.408,3.13,19.339,6.235,30.218,9.306c0.374,0.314,0.994,0.314,1.369,0  c10.878-3.07,20.809-6.176,30.217-9.306c0.28-0.319,0.419-0.985,0.317-1.479c-3.009-14.539-2.855-29.568,0.456-44.057  C63.788,8.431,63.568,7.876,63.183,7.693z M60.462,11.161c-1.536,6.722-2.305,13.572-2.305,20.424c0,6.223,0.633,12.446,1.9,18.571  l-0.325,0.067l0.325-0.066c0.025,0.123,0.036,0.248,0.036,0.376c-0.005,0.445-0.12,0.898-0.393,1.223l-0.06,0.068l-0.085,0.028  c-8.344,2.775-17.15,5.53-26.795,8.253c-0.226,0.164-0.496,0.239-0.761,0.24c-0.267-0.001-0.536-0.076-0.761-0.24  c-9.645-2.723-18.452-5.477-26.795-8.253l-0.086-0.028l-0.059-0.067c-0.273-0.324-0.388-0.778-0.393-1.225  c0-0.127,0.011-0.253,0.037-0.376c1.264-6.11,1.9-12.318,1.9-18.526c0-6.868-0.765-13.734-2.305-20.469  c-0.024-0.103-0.035-0.208-0.035-0.311c0.005-0.47,0.216-0.937,0.654-1.156l0.028-0.013l0.029-0.008  c8.466-2.253,17.365-4.492,26.945-6.71C31.415,2.868,31.707,2.83,32,2.829c0.292,0,0.583,0.04,0.837,0.133  c9.58,2.219,18.48,4.458,26.947,6.711l0.028,0.008l0.029,0.013c0.438,0.22,0.649,0.686,0.653,1.156  C60.496,10.953,60.485,11.058,60.462,11.161z"></path></svg></svg> <defs><filter id="colors4664735864"><feColorMatrix type="matrix" values="0 0 0 0 0.99609375  0 0 0 0 0.99609375  0 0 0 0 0.99609375  0 0 0 1 0" class="icon-fecolormatrix"></feColorMatrix></filter> <filter id="colorsf1277674332"><feColorMatrix type="matrix" values="0 0 0 0 0.99609375  0 0 0 0 0.99609375  0 0 0 0 0.99609375  0 0 0 1 0" class="icon-fecolormatrix"></feColorMatrix></filter> <filter id="colorsb4494875840"><feColorMatrix type="matrix" values="0 0 0 0 0  0 0 0 0 0  0 0 0 0 0  0 0 0 1 0" class="icon-fecolormatrix"></feColorMatrix></filter></defs></g> <g transform="translate(44.71500015258789,15.397422790527344)" filter="url(#8836c87a-131c-44d0-9b85-4287f0adefec)"><g class="iconsvg-imagesvg" transform="translate(2.5349998474121094,0)"><!----> <svg x="0" y="0" width="83" height="88.57196661013587" filtersec="colorsf6616616094" class="image-svg-svg primary"><svg xmlns="http://www.w3.org/2000/svg" viewBox="0 0 1362.09 1453.53"><g><path d="M1332.92 890.89v-.06c-.57-135.66-126-189.08-125.93-189.37l9.89-86.59a10.95 10.95 0 0 0-13.2-11.94 308 308 0 0 0-78.17 28.91l4.16-36.4a11 11 0 0 0-3.43-9.28 10.65 10.65 0 0 0-9.51-2.68c-81 15.85-152.07 62.11-197.48 127.89A528.7 528.7 0 0 0 568.83 513c-111.65-13.7-219.06 7.83-313.12 62.41 59.65-177 205.35-316.14 386.26-366.64a572.23 572.23 0 0 1 108.08-19.14c159.23-12.55 317.31 42.94 435.3 153.46 27 17.32 64.93 11.76 85.8-12.63a66.14 66.14 0 0 0-1.09-86.7C1119.74 74.74 895.3-15.57 669.69 2.21a722.42 722.42 0 0 0-283.92 82.9C88.71 243.08-60.47 581 23 907s376.59 550.67 713 546.52a4.3 4.3 0 0 0 .72 0 10.94 10.94 0 0 0 6.75-18.78c-124.57-120-141.42-188.67-133.63-225.14 5.33-24.8 22.62-37.56 32.3-42.95 188.67 229.49 413.76 224.22 457.32 220.79 7.24-.57 11.13-1.18 11.13-1.18a10.86 10.86 0 0 0 8.36-6.44c1.49-3.42.64-7.13-1-10.51-197.73-405.44 247.17-200.47 244.13-409.67-6.59-18.08-29.73-43.8-29.16-68.75zm-112.6-1.4a31.92 31.92 0 1 1 31.92-31.92 31.93 31.93 0 0 1-31.92 31.92z"></path></g></svg></svg> <defs><filter id="colors186856200"><feColorMatrix type="matrix" values="0 0 0 0 0.99609375  0 0 0 0 0.99609375  0 0 0 0 0.99609375  0 0 0 1 0" class="icon-fecolormatrix"></feColorMatrix></filter> <filter id="colorsf6616616094"><feColorMatrix type="matrix" values="0 0 0 0 0.99609375  0 0 0 0 0.99609375  0 0 0 0 0.99609375  0 0 0 1 0" class="icon-fecolormatrix"></feColorMatrix></filter> <filter id="colorsb6181012632"><feColorMatrix type="matrix" values="0 0 0 0 0  0 0 0 0 0  0 0 0 0 0  0 0 0 1 0" class="icon-fecolormatrix"></feColorMatrix></filter></defs></g> <g transform="translate(0,96.57196807861328)"><g fill-rule="" class="tp-name iconsvg-namesvg"><g><path d="M23.03-31.64L23.73-23.91L22.85-23.73Q20.57-31.29 17.05-30.41L17.05-30.41L10.37-30.41Q7.38-30.59 7.56-27.77L7.56-27.77L7.56-17.05L13.71-17.05Q18.28-16.35 18.28-22.32L18.28-22.32L18.98-22.32L18.98-10.37L18.28-10.37Q17.75-16.70 13.71-16.00L13.71-16.00L7.56-16.00L7.56-3.34Q7.21-0.53 11.43-0.70L11.43-0.70L11.43 0L1.05 0L1.05-0.70Q5.10-0.53 4.92-3.34L4.92-3.34L4.92-27.77Q5.27-30.94 0.88-30.76L0.88-30.76L0.88-31.64L23.03-31.64ZM38.50-1.76L38.50-1.76L38.50-2.29Q36.04 0.88 32.17 0.70L32.17 0.70Q26.54 0.70 26.37-4.39L26.37-4.39Q26.72-10.90 38.50-12.48L38.50-12.48L38.50-15.82Q38.50-20.21 34.28-20.39L34.28-20.39Q31.46-20.39 30.41-18.63L30.41-18.63Q29.88-17.93 30.23-17.05L30.23-17.05Q30.41-16.88 30.41-16.00L30.41-16.00Q30.41-14.41 28.83-14.41L28.83-14.41Q27.25-14.59 27.07-16.17L27.07-16.17Q27.60-21.09 34.28-21.45L34.28-21.45Q40.96-21.27 41.13-15.29L41.13-15.29L41.13-2.64Q41.13-1.05 42.19-1.05L42.19-1.05Q43.24-1.05 43.95-1.93L43.95-1.93L44.47-1.41Q42.89 0.88 41.13 0.70L41.13 0.70Q38.50 0.70 38.50-1.76ZM38.50-3.52L38.50-3.52L38.50-11.43Q29.53-10.02 29.18-4.39L29.18-4.39Q29.36-1.05 33.05-1.05L33.05-1.05Q35.86-1.05 38.50-3.52ZM47.99-4.22L47.99-4.22L47.99-19.86L45.35-19.86L45.35-20.57Q49.39-20.57 49.75-28.30L49.75-28.30L50.63-28.30L50.63-21.09L55.20-21.09L55.20-19.86L50.63-19.86L50.63-3.69Q50.63-1.41 52.73-1.23L52.73-1.23Q54.49-1.05 56.25-3.69L56.25-3.69L56.78-2.99Q55.20 0.88 51.86 0.70L51.86 0.70Q47.81 0.88 47.99-4.22ZM60.29-4.22L60.29-4.22L60.29-19.86L57.66-19.86L57.66-20.57Q61.70-20.57 62.05-28.30L62.05-28.30L62.93-28.30L62.93-21.09L67.50-21.09L67.50-19.86L62.93-19.86L62.93-3.69Q62.93-1.41 65.04-1.23L65.04-1.23Q66.80-1.05 68.55-3.69L68.55-3.69L69.08-2.99Q67.50 0.88 64.16 0.70L64.16 0.70Q60.12 0.88 60.29-4.22ZM85.08-17.58L85.08-17.58L78.57 1.76Q76.99 6.15 73.65 6.15L73.65 6.15Q70.66 5.98 70.49 3.69L70.49 3.69Q70.66 2.29 72.25 2.11L72.25 2.11Q73.65 2.11 73.83 3.52L73.83 3.52Q73.83 4.39 74.71 4.39L74.71 4.39Q76.11 4.22 77.34 1.05L77.34 1.05L78.57-2.64L72.95-17.58Q72.07-20.21 69.96-20.04L69.96-20.04L69.96-21.09L77.70-21.09L77.70-20.04Q74.71-20.21 75.59-18.46L75.59-18.46L79.98-6.33L84.02-18.46Q85.08-20.21 81.39-20.04L81.39-20.04L81.39-21.09L88.95-21.09L88.95-20.04Q85.78-20.21 85.08-17.58Z" transform="translate(-0.87890625, 31.640625)"></path></g> <!----> <!----> <!----> <!----> <!----> <!----> <!----></g> <!----></g></g></g></mask></svg>