<?xml version="1.0" standalone="no"?><!DOCTYPE svg PUBLIC "-//W3C//DTD SVG 1.1//EN" "http://www.w3.org/Graphics/SVG/1.1/DTD/svg11.dtd"><svg t="1633852174019" class="icon" viewBox="0 0 1034 1024" version="1.1" xmlns="http://www.w3.org/2000/svg" p-id="520" xmlns:xlink="http://www.w3.org/1999/xlink" width="50.48828125" height="50"><defs><style type="text/css"></style></defs><path d="M674.62144 1018.112c-55.66464 0-103.5776-36.7104-103.5776-104.57088 0-67.87072 18.10432-138.02496 54.86592-138.02496S750.90944 841.3184 756.66432 908.4928c5.75488 67.1744-26.37824 109.62944-82.04288 109.62944z m235.49952-242.5856c-46.62272-17.37728-91.43296-59.904-73.86112-177.89952 17.5616-118.00576 109.11744-149.2992 143.0528-142.27456 33.93536 7.0144 62.3616 43.07968 51.3536 142.27456-11.01824 99.19488-73.9328 195.25632-120.54528 177.88928zM249.61024 519.0656c-135.7312 0-225.792-57.98912-225.792-148.48 0-90.48064 132.93568-325.6832 406.95808-363.15136C704.79872-30.03392 881.11104 120.54528 881.11104 225.28c0 47.75936-16.08704 161.6896-184.48384 199.75168-18.3808 4.1472-112.41472 26.01984-152.59648-22.15936-40.18176-48.1792 14.46912-85.99552 14.46912-142.5408s-47.104-158.17728-149.57568-142.80704c-107.12064 16.0768-141.39392 116.9408-104.6528 199.35232 21.88288 49.0496 94.90432 53.71904 84.61312 119.87968-9.19552 59.136-122.80832 82.3296-139.27424 82.3296zM124.47744 874.496C19.456 762.74688-12.71808 633.31328 23.81824 592.44544c36.54656-40.8576 204.05248 16.04608 300.34944 141.28128S426.67008 981.504 396.288 1014.2208c-30.39232 32.70656-166.77888-27.99616-271.81056-139.73504z" p-id="521" fill="#13227a"></path></svg>